<svg width="98" height="28" viewBox="0 0 98 28" fill="none" xmlns="http://www.w3.org/2000/svg">
<path d="M10.5759 24.0024C9.17 23.9974 7.80835 23.511 6.71815 22.6244C5.62795 21.7378 4.87515 20.5046 4.58536 19.1305L4.48793 18.6548C3.84647 15.5885 3.84647 12.4229 4.48793 9.35661L4.58536 8.88088C4.87341 7.50525 5.62547 6.27005 6.71583 5.38173C7.8062 4.49341 9.1688 4.0058 10.5759 4.0004C11.2384 3.99957 11.8966 4.10694 12.5244 4.31827L12.8513 4.42639C15.5798 5.33731 18.1111 6.75553 20.3118 8.60626L20.5846 8.83547C21.3394 9.46853 21.9462 10.2589 22.3626 11.1512C22.7789 12.0434 22.9947 13.0159 22.9947 14.0003C22.9947 14.9847 22.7789 15.9572 22.3626 16.8494C21.9462 17.7417 21.3394 18.5321 20.5846 19.1651L20.3118 19.3944C18.1095 21.244 15.5767 22.6608 12.847 23.5699L12.5179 23.6802C11.8922 23.8917 11.2364 24.0005 10.5759 24.0024Z" fill="white"/>
<path d="M10.5763 8.00079C10.8045 8.00061 11.0313 8.03787 11.2474 8.11107L11.5743 8.22135C13.8273 8.97624 15.9177 10.1485 17.7359 11.6768L18.0087 11.8931C18.3159 12.1506 18.563 12.4723 18.7325 12.8354C18.902 13.1985 18.9898 13.5943 18.9898 13.9949C18.9898 14.3955 18.902 14.7913 18.7325 15.1544C18.563 15.5175 18.3159 15.8392 18.0087 16.0967L17.7359 16.3259C15.9174 17.8549 13.8272 19.0286 11.5743 19.7857L11.2583 19.8939C11.0421 19.9671 10.8154 20.0043 10.5871 20.0041C10.1014 20.0038 9.63062 19.8363 9.25404 19.5299C8.87747 19.2235 8.61808 18.7969 8.51954 18.3218L8.41995 17.8461C7.89383 15.3121 7.89383 12.6972 8.41995 10.1632L8.51954 9.68744C8.61683 9.21341 8.87424 8.78716 9.24868 8.48011C9.62311 8.17305 10.0918 8.00383 10.5763 8.00079V8.00079ZM10.5763 0C8.24876 0.000642902 5.99252 0.802148 4.18733 2.2696C2.38215 3.73706 1.13823 5.78087 0.664961 8.05701L0.565372 8.53274C-0.187155 12.1368 -0.187155 15.8573 0.565372 19.4614L0.664961 19.9371C0.954824 21.3366 1.53841 22.6588 2.37725 23.8165C3.21608 24.9743 4.2911 25.9413 5.53143 26.6538C6.77176 27.3663 8.14921 27.808 9.57296 27.95C10.9967 28.0919 12.4344 27.9308 13.7913 27.4773L14.1182 27.367C17.3245 26.2974 20.2995 24.6319 22.8864 22.4584L23.1657 22.2292C24.368 21.2205 25.3347 19.9611 25.9979 18.5395C26.6611 17.118 27.0048 15.5686 27.0048 14.0003C27.0048 12.432 26.6611 10.8826 25.9979 9.46107C25.3347 8.0395 24.368 6.78014 23.1657 5.77138L22.8907 5.54217C20.3038 3.36867 17.3289 1.70323 14.1225 0.633576L13.7913 0.523295C12.7548 0.177189 11.6692 0.00048357 10.5763 0V0Z" fill="#00BBA4"/>
<path d="M51.3616 25.1852C49.9977 22.7662 48.5219 20.3775 46.9342 18.0191C45.3746 15.6985 43.6831 13.469 41.8681 11.3417V25.1809H37.1658V4.05446H41.0433C41.7144 4.72624 42.457 5.5501 43.271 6.52605C44.0851 7.50201 44.9143 8.54355 45.7586 9.65069C46.603 10.7578 47.4423 11.906 48.2765 13.0954C49.1107 14.2847 49.8945 15.4278 50.6277 16.5249V4.05446H55.3603V25.1852H51.3616Z" fill="#122A3D"/>
<path d="M73.5529 17.1347C73.5671 18.3107 73.3812 19.4806 73.0029 20.5945C72.6679 21.5894 72.1273 22.503 71.416 23.2758C70.7202 24.0235 69.872 24.6134 68.9284 25.0057C67.8978 25.4243 66.7934 25.6317 65.681 25.6155C64.5777 25.6303 63.4828 25.4229 62.4616 25.0057C61.5174 24.6147 60.6688 24.0246 59.974 23.2758C59.2601 22.4992 58.7094 21.5874 58.3546 20.5945C57.9579 19.4845 57.7615 18.3131 57.7744 17.1347C57.7599 15.9597 57.9617 14.7921 58.3698 13.69C58.7364 12.7012 59.2981 11.796 60.0217 11.0281C60.729 10.2929 61.5812 9.71202 62.5244 9.32199C63.5255 8.90861 64.5999 8.70121 65.6831 8.7122C66.7771 8.69939 67.8624 8.90678 68.8743 9.32199C69.8116 9.7114 70.6567 10.2926 71.3554 11.0281C72.0677 11.7948 72.6178 12.6972 72.9726 13.6813C73.3724 14.7882 73.569 15.9581 73.5529 17.1347V17.1347ZM68.9133 17.1347C68.9133 15.7334 68.6333 14.6306 68.0733 13.8262C67.8102 13.4377 67.4517 13.1231 67.0321 12.9126C66.6125 12.7021 66.1457 12.6027 65.6766 12.6239C65.2063 12.6049 64.7389 12.7052 64.3179 12.9155C63.8969 13.1257 63.5361 13.439 63.2692 13.8262C62.6918 14.6306 62.4032 15.7334 62.4032 17.1347C62.4032 18.5359 62.6918 19.6488 63.2692 20.4734C63.5312 20.8686 63.8908 21.1899 64.3132 21.4061C64.7356 21.6224 65.2066 21.7264 65.681 21.7081C66.1534 21.728 66.6229 21.6246 67.0432 21.4081C67.4634 21.1916 67.8199 20.8694 68.0776 20.4734C68.6347 19.6545 68.9133 18.5416 68.9133 17.1347Z" fill="#122A3D"/>
<path d="M90.5868 17.1649C90.6031 18.348 90.4118 19.5248 90.0218 20.642C89.6719 21.6328 89.113 22.5369 88.3829 23.2931C87.6433 24.0442 86.7465 24.6224 85.7567 24.9863C84.6231 25.3988 83.4234 25.6003 82.217 25.5809C81.6671 25.5809 81.0897 25.5557 80.485 25.5052C79.8831 25.4533 79.2942 25.3885 78.714 25.3063C78.1338 25.2241 77.5796 25.129 77.0513 25.0165C76.5231 24.9041 76.0533 24.7873 75.6462 24.6662V2.25752L80.1927 1.52448V9.51445C80.7034 9.29061 81.235 9.11751 81.7796 8.99765C82.3614 8.87144 82.9553 8.8098 83.5506 8.81384C84.5919 8.79265 85.6257 8.99546 86.5816 9.4085C87.4383 9.7906 88.1916 10.371 88.7791 11.1016C89.3953 11.8838 89.8514 12.7795 90.1213 13.7376C90.441 14.8517 90.5977 16.0061 90.5868 17.1649V17.1649ZM85.9472 17.0438C85.9472 14.116 84.8684 12.6528 82.7106 12.6542C82.2421 12.6543 81.7756 12.7153 81.3228 12.8359C80.9298 12.9306 80.5538 13.0853 80.2079 13.2943V21.5567C80.4244 21.5978 80.7166 21.6324 81.063 21.6627C81.4094 21.693 81.784 21.7081 82.191 21.7081C83.4337 21.7081 84.3719 21.2814 85.0055 20.428C85.6391 19.5745 85.953 18.4465 85.9472 17.0438Z" fill="#122A3D"/>
<path d="M97.6685 4.51287C97.6883 4.8813 97.626 5.24953 97.486 5.59096C97.3459 5.93238 97.1317 6.23848 96.8588 6.48712C96.3314 6.94981 95.6534 7.20497 94.9514 7.20497C94.2495 7.20497 93.5715 6.94981 93.0441 6.48712C92.7723 6.23942 92.5588 5.93474 92.4188 5.59491C92.2788 5.25508 92.2158 4.88852 92.2344 4.52152C92.2158 4.15452 92.2788 3.78797 92.4188 3.44814C92.5588 3.10831 92.7723 2.80362 93.0441 2.55592C93.5715 2.09324 94.2495 1.83807 94.9514 1.83807C95.6534 1.83807 96.3314 2.09324 96.8588 2.55592C97.1294 2.80268 97.3422 3.10596 97.4822 3.44419C97.6221 3.78242 97.6858 4.1473 97.6685 4.51287ZM97.2355 25.1852H92.689V9.14685H97.2355V25.1852Z" fill="#122A3D"/>
</svg>
